<svg width="92" height="92" viewBox="0 0 92 92" fill="none" xmlns="http://www.w3.org/2000/svg">
<path d="M48.5683 0.523959C47.7633 0.180676 46.9008 0 46 0C45.0992 0 44.2367 0.180676 43.4317 0.523959L7.34091 14.9599C3.12425 16.6402 -0.0190795 20.5609 8.71793e-05 25.2946C0.0959203 43.2176 7.91591 76.0102 40.94 90.9159C44.1408 92.3614 47.8592 92.3614 51.06 90.9159C84.0841 76.0102 91.9041 43.2176 91.9999 25.2946C92.0191 20.5609 88.8758 16.6402 84.6591 14.9599L48.5683 0.523959ZM27.7725 51.7094C28.6925 51.9262 29.67 52.0346 30.6667 52.0346C37.4325 52.0346 42.9333 46.8492 42.9333 40.4713V28.9081H51.405C53.7242 28.9081 55.8516 30.1367 56.8866 32.106L58.2666 34.6897H70.5333C72.2199 34.6897 73.5999 35.9906 73.5999 37.5805V43.3621C73.5999 51.348 66.7383 57.8162 58.2666 57.8162H49.0667V66.9764C49.0667 68.2954 47.9358 69.3794 46.5175 69.3794C46.1725 69.3794 45.8275 69.3071 45.5208 69.1807L26.6034 61.5381C25.3384 61.0322 24.5334 59.8578 24.5334 58.575C24.5334 58.0691 24.6484 57.5813 24.8975 57.1296L27.7725 51.7094ZM27.6 28.9081H35.2667H36.8V34.6897V40.4713C36.8 43.6693 34.0592 46.2529 30.6667 46.2529C27.2742 46.2529 24.5334 43.6693 24.5334 40.4713V31.7989C24.5334 30.209 25.9134 28.9081 27.6 28.9081ZM52.1333 37.5805C52.1333 36.8138 51.8102 36.0785 51.2351 35.5364C50.66 34.9943 49.88 34.6897 49.0667 34.6897C48.2533 34.6897 47.4733 34.9943 46.8982 35.5364C46.3231 36.0785 46 36.8138 46 37.5805C46 38.3472 46.3231 39.0825 46.8982 39.6246C47.4733 40.1668 48.2533 40.4713 49.0667 40.4713C49.88 40.4713 50.66 40.1668 51.2351 39.6246C51.8102 39.0825 52.1333 38.3472 52.1333 37.5805Z" fill="white"/>
</svg>
