<svg width="131" height="122" viewBox="0 0 131 122" fill="none" xmlns="http://www.w3.org/2000/svg">
<path d="M57.9498 16.5735C61.6094 28.2573 57.8731 40.05 49.607 42.9369C41.3409 45.8238 31.6673 38.6883 28.0077 27.0045C24.3481 15.3207 28.0845 3.52797 36.3505 0.641067C44.6166 -2.24584 54.2902 4.88972 57.9498 16.5735ZM25.6788 45.3609C30.5156 54.185 29.3384 64.4526 23.0685 68.2655C16.7986 72.0783 7.79031 68.0203 2.9791 59.1962C-1.83212 50.3721 -0.706094 40.1045 5.56385 36.2916C11.8338 32.4787 20.842 36.5367 25.6532 45.3609H25.6788ZM17.6943 100.539C31.1043 62.0559 54.93 52.2785 65.4994 52.2785C76.0687 52.2785 99.8945 62.0559 113.304 100.539C114.226 103.181 114.635 106.013 114.635 108.846V109.281C114.635 116.308 109.287 122 102.684 122C99.7409 122 96.8235 121.619 93.9828 120.856L71.4622 114.864C67.5467 113.83 63.452 113.83 59.5365 114.864L37.0159 120.856C34.1752 121.619 31.2578 122 28.3148 122C21.7121 122 16.3635 116.308 16.3635 109.281V108.846C16.3635 106.013 16.773 103.181 17.6943 100.539ZM107.93 68.2655C101.66 64.4526 100.483 54.185 105.32 45.3609C110.157 36.5367 119.139 32.4787 125.409 36.2916C131.679 40.1045 132.856 50.3721 128.02 59.1962C123.183 68.0203 114.2 72.0783 107.93 68.2655ZM79.3444 42.9369C71.0783 40.05 67.342 28.2573 71.0016 16.5735C74.6611 4.88972 84.3348 -2.24584 92.6009 0.641067C100.867 3.52797 104.603 15.3207 100.944 27.0045C97.2841 38.6883 87.6105 45.8238 79.3444 42.9369Z" fill="white"/>
</svg>
