<svg width="117" height="118" viewBox="0 0 117 118" fill="none" xmlns="http://www.w3.org/2000/svg">
<path d="M51.3403 16.0955C54.5825 27.379 51.2723 38.7678 43.949 41.5558C36.6257 44.3438 28.0554 37.4527 24.8132 26.1691C21.571 14.8856 24.8812 3.49689 32.2045 0.708888C39.5278 -2.07911 48.0981 4.81199 51.3403 16.0955ZM22.75 43.8966C27.0351 52.4184 25.9922 62.3343 20.4374 66.0165C14.8826 69.6988 6.90178 65.7798 2.63931 57.258C-1.62316 48.7362 -0.625559 38.8204 4.92925 35.1381C10.4841 31.4558 18.4649 35.3748 22.7273 43.8966H22.75ZM15.6761 97.1843C27.5566 60.0197 48.6649 50.5773 58.0287 50.5773C67.3926 50.5773 88.5008 60.0197 100.381 97.1843C101.198 99.7356 101.56 102.471 101.56 105.206V105.627C101.56 112.413 96.8217 117.91 90.9722 117.91C88.3648 117.91 85.7801 117.542 83.2634 116.806L63.3115 111.019C59.8425 110.02 56.2149 110.02 52.746 111.019L32.794 116.806C30.2773 117.542 27.6926 117.91 25.0853 117.91C19.2357 117.91 14.4971 112.413 14.4971 105.627V105.206C14.4971 102.471 14.8599 99.7356 15.6761 97.1843ZM95.6201 66.0165C90.0652 62.3343 89.0223 52.4184 93.3075 43.8966C97.5926 35.3748 105.551 31.4558 111.106 35.1381C116.66 38.8204 117.703 48.7362 113.418 57.258C109.133 65.7798 101.175 69.6988 95.6201 66.0165ZM70.2947 41.5558C62.9714 38.7678 59.6612 27.379 62.9034 16.0955C66.1455 4.81199 74.7158 -2.07911 82.0391 0.708888C89.3624 3.49689 92.6726 14.8856 89.4304 26.1691C86.1882 37.4527 77.6179 44.3438 70.2947 41.5558Z" fill="black"/>
</svg>
