<svg width="81" height="87" viewBox="0 0 81 87" fill="none" xmlns="http://www.w3.org/2000/svg">
<path d="M0 9.231C0 4.13472 3.88728 0 8.67857 0H26.0357C30.827 0 34.7143 4.13472 34.7143 9.231V27.693C34.7143 32.7893 30.827 36.924 26.0357 36.924H8.67857C3.88728 36.924 0 32.7893 0 27.693V9.231ZM11.5714 12.308V24.616H23.1429V12.308H11.5714ZM0 58.463C0 53.3667 3.88728 49.232 8.67857 49.232H26.0357C30.827 49.232 34.7143 53.3667 34.7143 58.463V76.925C34.7143 82.0212 30.827 86.156 26.0357 86.156H8.67857C3.88728 86.156 0 82.0212 0 76.925V58.463ZM11.5714 61.54V73.848H23.1429V61.54H11.5714ZM54.9643 0H72.3214C77.1127 0 81 4.13472 81 9.231V27.693C81 32.7893 77.1127 36.924 72.3214 36.924H54.9643C50.173 36.924 46.2857 32.7893 46.2857 27.693V9.231C46.2857 4.13472 50.173 0 54.9643 0ZM69.4286 12.308H57.8571V24.616H69.4286V12.308ZM46.2857 52.309C46.2857 50.6166 47.5875 49.232 49.1786 49.232H60.75C62.3411 49.232 63.6429 50.6166 63.6429 52.309C63.6429 54.0013 64.9446 55.386 66.5357 55.386H72.3214C73.9125 55.386 75.2143 54.0013 75.2143 52.309C75.2143 50.6166 76.5161 49.232 78.1071 49.232C79.6982 49.232 81 50.6166 81 52.309V70.771C81 72.4633 79.6982 73.848 78.1071 73.848H66.5357C64.9446 73.848 63.6429 72.4633 63.6429 70.771C63.6429 69.0786 62.3411 67.694 60.75 67.694C59.1589 67.694 57.8571 69.0786 57.8571 70.771V83.0789C57.8571 84.7713 56.5554 86.156 54.9643 86.156H49.1786C47.5875 86.156 46.2857 84.7713 46.2857 83.0789V52.309ZM66.5357 86.156C65.7685 86.156 65.0327 85.8318 64.4902 85.2547C63.9476 84.6777 63.6429 83.895 63.6429 83.0789C63.6429 82.2629 63.9476 81.4802 64.4902 80.9032C65.0327 80.3261 65.7685 80.002 66.5357 80.002C67.3029 80.002 68.0388 80.3261 68.5813 80.9032C69.1238 81.4802 69.4286 82.2629 69.4286 83.0789C69.4286 83.895 69.1238 84.6777 68.5813 85.2547C68.0388 85.8318 67.3029 86.156 66.5357 86.156ZM78.1071 86.156C77.3399 86.156 76.6041 85.8318 76.0616 85.2547C75.5191 84.6777 75.2143 83.895 75.2143 83.0789C75.2143 82.2629 75.5191 81.4802 76.0616 80.9032C76.6041 80.3261 77.3399 80.002 78.1071 80.002C78.8744 80.002 79.6102 80.3261 80.1527 80.9032C80.6952 81.4802 81 82.2629 81 83.0789C81 83.895 80.6952 84.6777 80.1527 85.2547C79.6102 85.8318 78.8744 86.156 78.1071 86.156Z" fill="white"/>
</svg>
